<svg width="166" height="48" viewBox="0 0 166 48" fill="none" xmlns="http://www.w3.org/2000/svg">
<g clip-path="url(#clip0_369_8)">
<path fill-rule="evenodd" clip-rule="evenodd" d="M113.961 0H160.621C163.58 0 166 2.41931 166 5.37498V42.625C166 45.5807 163.579 48 160.621 48H113.961C111.003 48 108.582 45.5816 108.582 42.625V5.37498C108.582 2.4184 111.003 0 113.961 0V0ZM151.286 5.08247L137.474 18.6921L123.855 5.08247H112.915L132.247 23.9142L114.493 41.8048H124.946L137.548 29.2114L149.63 41.7561H160.569L142.774 23.9889L161.666 5.08247H151.285H151.286Z" fill="url(#paint0_linear_369_8)"/>
<path d="M15.421 19.0865C16.8208 19.0865 17.8806 18.7726 18.6008 18.1557C19.3219 17.5384 19.6839 16.6322 19.6839 15.433C19.6839 14.2683 19.3219 13.3549 18.6008 12.7034C17.8802 12.0524 16.8691 11.7244 15.5589 11.7244C9.19142 11.7244 6.36801 11.7244 0.000976562 11.7244V5.1311H17.5183C21.1042 5.1311 23.9094 6.03596 25.9498 7.84157C27.9834 9.64172 29.0022 12.1393 29.0022 15.3261C29.0022 17.9797 28.2078 20.2475 26.619 22.1413C25.0189 24.0352 22.9197 25.2144 20.3098 25.6793L29.5089 41.8047H21.2754L12.0954 25.7471H8.20264V41.8047H0.000976562C0.000976562 34.232 0.000976562 26.6588 0.000976562 19.086C6.32248 19.086 9.09946 19.086 15.4214 19.086L15.421 19.0865ZM96.0545 23.709H91.8258L88.7538 28.8961H96.0545V34.54H82.8898C80.645 34.54 79.7081 33.5555 79.7204 31.3123L79.8092 15.6313C79.8215 13.3881 80.584 12.3977 82.8288 12.3977H98.44L102.688 5.13201H78.2982C75.1361 5.13201 72.5481 7.71828 72.5481 10.8782V36.059C72.5481 39.2194 75.1361 41.8057 78.2982 41.8057H96.055H102.689C102.689 35.7733 102.689 29.7414 102.689 23.709H96.055H96.0545ZM37.32 5.13156H64.7484L60.8934 11.7248H44.3162V19.087H47.7724H56.5886L52.6935 25.748H44.3162V35.993H63.7919L67.1147 41.8057H37.3195C37.3195 29.5808 37.3195 17.3564 37.3195 5.13201L37.32 5.13156Z" fill="url(#paint1_linear_369_8)"/>
</g>
<defs>
<linearGradient id="paint0_linear_369_8" x1="143.388" y1="1.22831" x2="143.389" y2="46.9045" gradientUnits="userSpaceOnUse">
<stop stop-color="#00699A"/>
<stop offset="0.0001" stop-color="#00699A"/>
<stop offset="1" stop-color="#0C003C"/>
</linearGradient>
<linearGradient id="paint1_linear_369_8" x1="39.1064" y1="41.8047" x2="39.1064" y2="5.1311" gradientUnits="userSpaceOnUse">
<stop stop-color="#808080"/>
<stop offset="1" stop-color="#B3B3B3"/>
</linearGradient>
<clipPath id="clip0_369_8">
<rect width="166" height="48" fill="white"/>
</clipPath>
</defs>
</svg>
