<svg width="70" height="57" viewBox="0 0 70 57" fill="none" xmlns="http://www.w3.org/2000/svg">
<path opacity="0.9" d="M35.0054 13.5714C35.0054 17.1708 33.5869 20.6227 31.062 23.1679C28.5371 25.713 25.1125 27.1429 21.5418 27.1429C17.971 27.1429 14.5465 25.713 12.0216 23.1679C9.49665 20.6227 8.07817 17.1708 8.07817 13.5714C8.07817 9.97206 9.49665 6.52012 12.0216 3.97498C14.5465 1.42984 17.971 0 21.5418 0C25.1125 0 28.5371 1.42984 31.062 3.97498C33.5869 6.52012 35.0054 9.97206 35.0054 13.5714ZM53.8544 27.1429C56.7111 27.1429 59.4507 25.999 61.4706 23.9629C63.4905 21.9268 64.6253 19.1652 64.6253 16.2857C64.6253 13.4062 63.4905 10.6447 61.4706 8.60855C59.4507 6.57244 56.7111 5.42857 53.8544 5.42857C50.9978 5.42857 48.2582 6.57244 46.2383 8.60855C44.2183 10.6447 43.0835 13.4062 43.0835 16.2857C43.0835 19.1652 44.2183 21.9268 46.2383 23.9629C48.2582 25.999 50.9978 27.1429 53.8544 27.1429ZM48.469 41.2246V40.7143C48.4729 37.7772 47.5276 34.9187 45.7763 32.5714H63.4028C67.0434 32.5714 70 35.5463 70 39.2214C70 39.2214 70 51.5714 53.8437 51.5714C50.6232 51.5714 48.0435 51.0829 45.9809 50.2957C47.2673 47.9196 48.0848 45.3147 48.3882 42.6251C48.4205 42.2886 48.4421 42.0009 48.4528 41.762L48.469 41.2191V41.2246ZM43.0835 40.7143C43.0835 38.5547 42.2325 36.4835 40.7175 34.9564C39.2026 33.4293 37.1478 32.5714 35.0054 32.5714H8.07817C5.9357 32.5714 3.88099 33.4293 2.36604 34.9564C0.85109 36.4835 0 38.5547 0 40.7143V41.1214C0 41.1214 0 57 21.5418 57C42.0711 57 43.0351 42.5817 43.0835 41.2246V40.7143Z" fill="url(#paint0_linear_335_330)"/>
<defs>
<linearGradient id="paint0_linear_335_330" x1="-5.87591" y1="6.08" x2="136.83" y2="44.1224" gradientUnits="userSpaceOnUse">
<stop offset="0.0001" stop-color="#006798"/>
<stop offset="1" stop-color="#0C023E"/>
</linearGradient>
</defs>
</svg>
