<svg width="70" height="61" viewBox="0 0 70 61" fill="none" xmlns="http://www.w3.org/2000/svg">
<path opacity="0.9" d="M1.73267 0C1.27314 0 0.832428 0.182578 0.507488 0.50757C0.182549 0.832562 0 1.27335 0 1.73295V50.9488C0 51.4084 0.182549 51.8492 0.507488 52.1742C0.832428 52.4992 1.27314 52.6818 1.73267 52.6818H48.0851C47.4794 51.8846 46.875 51.0868 46.2665 50.2903C45.5097 49.1736 44.4105 48.2177 44.0882 46.8604C39.6318 48.7001 34.5114 48.8707 29.9385 47.3436C29.838 47.311 29.7396 47.2708 29.6398 47.2368C29.1151 47.7498 28.5496 48.644 28.4602 49.2159H21.8712C22.366 47.5391 21.3153 44.9209 22.3092 43.2143C22.3882 43.1935 22.4839 43.0597 22.5275 42.9218C22.4152 42.8164 22.3016 42.7138 22.1921 42.6064C21.2176 42.9031 20.8281 43.6371 20.2861 44.2811C20.5821 45.6841 18.446 45.3521 18.6616 46.7835C20.1496 47.9376 17.2879 47.058 16.4368 47.1502C15.5338 47.1599 12.8918 46.2144 13.8087 48.1484C13.6652 48.6793 13.7976 49.0051 14.0617 49.2159H13.6569C13.5939 48.6086 12.4503 48.5185 12.0095 48.2205C11.2672 48.0402 10.3808 47.9501 9.61218 47.6077C9.41465 48.1567 7.63208 48.7847 7.24188 49.2159H3.46535V23.8933C3.99693 24.2496 5.18901 24.1081 3.56446 23.3387H3.46535V15.3574C3.78069 15.198 4.00594 15.1474 3.99208 15.4143C4.77317 15.1509 5.11346 13.2495 6.46495 14.0279C7.30772 14.152 8.70218 15.4586 8.00148 15.6222C8.54762 16.9559 8.93505 16.0971 9.60525 17.6865C9.14644 19.8603 10.9034 21.4713 11.8674 22.857C13.0221 23.3366 13.4788 24.8297 15.3556 24.888C15.6107 25.1112 15.9378 25.3136 16.2788 25.5077C16.3724 24.7909 16.5048 24.0797 16.6718 23.3768C16.6267 23.3664 16.5831 23.3602 16.5346 23.3443C14.7291 25.01 14.359 22.1263 16.1222 22.0134C16.24 22.0057 16.3668 22.012 16.5034 22.0307C16.7078 22.0064 16.8776 22.0307 17.0211 22.0813C17.6001 20.1828 18.458 18.3809 19.5667 16.7348C20.1621 15.8462 20.8305 15.0087 21.5648 14.231C21.2003 13.621 20.8274 13.2807 20.3873 14.0771C20.3541 12.8952 17.159 11.6565 19.5099 12.7906C20.7429 13.8532 21.1469 12.6062 21.3417 11.755C22.3986 10.6528 20.2584 10.2764 20.6486 9.5562C19.9999 8.58366 19.0393 7.58756 18.0524 6.98519C16.1381 7.207 15.4672 6.80288 18.0267 6.80149C18.2575 5.60576 18.6408 4.75869 18.9049 3.75219C18.6276 3.67247 18.3379 3.68495 18.0524 3.68426C16.8277 3.51997 16.1007 3.99342 16.1256 4.92852C15.2059 4.85504 16.0321 3.28707 14.6141 3.76605C12.4642 3.73209 15.0632 4.45854 14.8636 4.56321C14.6175 5.11498 13.0685 4.77117 13.2508 5.33056C12.5411 4.01768 12.2181 5.95651 11.6657 4.62837C11.3331 4.30951 13.0588 4.94308 12.6658 3.78061C11.7967 3.44788 11.4855 4.03016 10.8084 4.26792C8.78743 5.38671 11.1612 6.43896 12.1876 6.81189C13.7346 6.39945 13.7332 5.87818 14.8088 6.45144C16.0148 7.12036 13.5911 6.65038 13.6652 7.67975C13.5266 7.03995 13.3534 6.65385 12.6049 7.47388C11.6068 7.65411 11.1612 6.2823 10.4161 6.37865C8.71812 6.14782 9.35228 9.96725 10.7509 8.66684C11.5971 10.1315 9.6697 9.05087 9.09792 8.88727C7.80673 10.3298 6.41574 8.84984 4.87436 8.79023C4.38089 8.46166 3.89713 8.4575 3.46535 8.62456V3.46591H21.6397C20.3437 3.50126 19.1862 3.67247 19.6575 4.6048C19.5813 6.40291 21.9072 4.97496 22.242 6.60116C23.2081 7.73729 21.6674 10.153 23.3384 9.7288C22.7237 10.4767 22.8006 11.6683 23.2802 12.6076C25.0544 11.1182 27.0665 9.93815 29.2323 9.11672C29.2704 8.90322 29.2406 8.65783 29.1131 8.36808C28.8961 7.28048 29.9052 6.9332 29.5518 5.72706C30.0272 4.81899 29.6585 3.85825 28.8435 3.46591H66.5347V8.37224C66.4271 8.32616 66.3167 8.28725 66.2041 8.25579C65.2275 9.14098 66.0169 9.22485 66.5347 9.02591V9.7995C65.38 9.14999 64.1117 9.07859 62.8801 9.34893C62.3208 8.3764 60.3407 8.39928 59.6892 7.52379C58.5415 6.14852 60.0392 6.55888 61.0407 6.45282C60.7565 5.59328 59.0516 5.18569 58.3315 5.32779C57.0306 6.04038 59.0149 6.67949 58.8146 7.63608C58.8146 8.33134 57.9669 8.3362 57.2274 8.29807C57.5261 7.56191 55.8115 6.65662 55.1316 7.25553C53.8446 6.86596 53.3539 7.09471 54.2029 5.7541C53.9062 4.72334 52.6802 4.70393 52.1306 3.98856C51.4285 5.47752 50.2579 5.02626 49.0035 5.93294C48.501 6.66771 47.4544 7.32762 47.4025 7.81284C46.6248 8.17815 45.8465 6.31419 45.3011 7.96534C44.8062 9.3628 45.3288 10.04 43.6592 8.89629C41.9314 7.0545 47.1301 5.47682 45.1978 4.69284C43.5941 5.16073 42.63 6.29131 42.3112 7.89741C42.1386 8.26272 42.2169 8.51712 42.3992 8.72299C48.4871 10.5391 53.525 15.4358 55.5731 21.4429C55.6049 21.081 55.6652 20.733 55.7865 20.4787C56.2987 20.0877 55.8926 21.9794 56.9509 20.9036C56.1712 22.5776 58.9109 21.1254 59.2817 20.4343C58.7383 19.0701 61.2361 18.4275 61.1779 18.1704C60.2582 17.2055 60.7808 18.1655 59.7661 18.3866C59.43 17.9388 60.4107 15.4836 59.1056 15.7089C57.1567 15.207 60.7635 13.7714 61.7372 14.2996C62.1808 12.6582 62.8184 13.9655 61.7227 14.7204C61.3054 16.1768 61.505 18.1634 62.7325 16.217C63.2842 15.6798 63.1469 14.2795 63.8649 14.0355C64.8297 13.5808 66.5513 13.2252 66.5062 11.8194C66.5159 11.8167 66.5249 11.8174 66.5347 11.8153V49.2159H63.7908C64.3854 48.3924 65.1721 46.9838 64.339 46.4729C63.0839 46.256 62.1461 44.7421 60.629 44.8052C59.9443 44.0163 58.3675 43.617 57.9434 43.4632C57.5192 43.3093 56.7832 44.1986 56.0291 43.8056C55.8022 43.7689 55.5705 43.7731 55.3451 43.8181C57.6142 46.7641 59.8618 49.726 62.1177 52.6818H68.2673C68.7269 52.6818 69.1676 52.4992 69.4925 52.1742C69.8174 51.8492 70 51.4084 70 50.9488V1.73295C70 1.27335 69.8174 0.832562 69.4925 0.50757C69.1676 0.182578 68.7269 0 68.2673 0H1.73267ZM35.4782 3.68772C34.3624 4.23742 36.3411 6.42579 36.3958 4.33654C36.6003 4.64154 37.9719 4.94931 37.5235 3.96569C36.5268 3.37857 36.6786 4.05303 35.4782 3.68772ZM51.475 3.68911C52.5284 4.28663 50.2711 4.27554 51.475 3.68911V3.68911ZM13.2314 3.88805C12.3304 4.55767 14.5538 5.22035 13.3492 3.92341L13.2314 3.88805ZM20.6091 4.28525C20.3866 4.42457 20.8344 4.50152 20.6091 4.28525V4.28525ZM11.9069 5.14202C11.8515 5.15103 12.013 5.26471 11.9069 5.14202V5.14202ZM14.9932 5.42761C14.91 5.87124 16.0792 5.61615 14.9932 5.42761V5.42761ZM16.5145 5.55238C16.8936 5.80886 17.5471 5.48653 16.5145 5.55238V5.55238ZM13.4823 5.59813C13.3963 5.90937 14.1539 5.66745 13.4823 5.59813V5.59813ZM15.6322 6.57413C15.2981 6.78555 16.3114 6.73079 15.6322 6.57413V6.57413ZM16.1111 7.6548C15.7022 8.95937 17.5645 10.7256 16.1194 9.23872C15.7223 8.64397 15.5157 8.07417 16.1111 7.6548ZM13.6867 7.7865C14.2821 8.78122 15.1886 9.04671 14.4297 9.38914C13.9258 9.14514 13.8094 8.38541 13.6867 7.7865ZM23.0286 8.78954C22.8027 8.8034 23.1125 8.84569 23.0286 8.78954V8.78954ZM8.97594 9.10355C8.86852 9.1084 8.89832 9.41825 8.97594 9.10355V9.10355ZM14.3431 9.61234C14.0263 9.60056 14.2946 10.2681 14.3431 9.61234V9.61234ZM18.3268 9.6165C18.0676 10.8989 19.0961 10.8171 19.0268 10.946C18.1771 11.3203 18.3802 12.862 17.7301 11.6856C17.3198 11.4943 17.9408 9.80158 18.2201 9.65324L18.3268 9.6165ZM14.1497 9.61789C14.1435 9.91804 14.2405 9.63868 14.1497 9.61789V9.61789ZM64.2836 9.73296C64.163 9.8508 64.3113 9.78009 64.2836 9.73296V9.73296ZM14.1996 9.90071C13.5661 10.3513 14.6723 10.3956 14.1996 9.90071V9.90071ZM36.224 10.5821C32.4446 10.6084 28.7761 11.8622 25.7711 14.1548C18.0849 20.0087 16.5893 31.0441 22.4423 38.7315C27.921 45.9274 37.9254 47.6631 45.4868 43.0556L46.9312 44.9528C46.647 45.6141 46.6734 46.2463 47.004 46.6816L57.4832 60.4447C58.1069 61.2633 59.613 61.1656 60.8466 60.2257C62.0803 59.2864 62.5745 57.8605 61.9514 57.0412L51.4722 43.2781C51.1409 42.8428 50.5386 42.6487 49.8254 42.7471L48.3811 40.8506C54.8329 34.7852 55.8219 24.6786 50.3439 17.4827C47.417 13.639 43.1948 11.3446 38.744 10.7415C37.9088 10.6285 37.0667 10.5752 36.224 10.5821ZM16.5484 12.3206C16.9816 13.3493 18.6547 12.7455 17.9997 14.1478C18.7288 14.8341 17.884 17.2533 17.6005 15.1918C15.786 15.1827 14.9197 13.3722 16.4431 12.4218L16.5484 12.3206ZM18.1293 12.4911C17.256 12.7538 18.6838 12.9625 18.1293 12.4911V12.4911ZM61.6735 13.7583C61.8426 13.9725 61.722 13.7236 61.6735 13.7583V13.7583ZM36.9219 14.466C38.9332 14.5427 40.9024 15.065 42.6873 15.9952C44.4723 16.9254 46.0285 18.2403 47.2438 19.8451C48.3325 21.2687 49.1293 22.8933 49.5886 24.6258C50.0479 26.3582 50.1605 28.1643 49.9201 29.9404C49.6796 31.7164 49.0908 33.4275 48.1874 34.9754C47.284 36.5233 46.0839 37.8775 44.6558 38.9602C43.2324 40.0492 41.608 40.8463 39.8758 41.3057C38.1436 41.7651 36.3377 41.8778 34.5618 41.6373C32.7859 41.3968 31.075 40.8079 29.5274 39.9043C27.9797 39.0007 26.6257 37.8003 25.5431 36.3719C24.4544 34.9483 23.6576 33.3236 23.1984 31.5911C22.7391 29.8587 22.6266 28.0526 22.8671 26.2765C23.1076 24.5004 23.6965 22.7893 24.5999 21.2415C25.5034 19.6936 26.7036 18.3395 28.1317 17.2567C30.6471 15.3304 33.7562 14.3433 36.9219 14.466ZM63.666 15.18C64.9725 15.9154 62.5779 16.0804 63.666 15.18V15.18ZM64.9621 15.93C66.0149 16.5192 63.7575 16.5185 64.9621 15.93V15.93ZM65.7466 16.2045C66.8417 16.6287 64.6724 17.0987 65.7466 16.2045V16.2045ZM65.7037 16.3986C65.6669 16.4617 65.7633 16.3979 65.7037 16.3986V16.3986ZM65.8062 16.5102C65.7196 16.5213 65.8388 16.5629 65.8062 16.5102V16.5102ZM36.4624 17.2325C34.9473 17.2055 33.4517 17.5444 32.0725 18.153C32.1446 18.2411 32.2478 18.3256 32.3989 18.4019C31.0128 17.9513 30.6094 19.703 31.193 20.4911L32.1307 20.5681L32.9146 20.2229C33.4212 19.696 33.5473 19.7869 33.7109 18.989L34.0165 19.0285L34.2591 18.9273L34.8115 19.2004C35.4741 19.4597 35.5052 20.0184 35.2835 20.182C34.9695 20.3754 35.3396 20.4038 35.3701 20.5237C35.5267 20.4787 35.6182 20.3435 35.7166 20.2714L35.8941 20.2076C36.5414 19.7827 36.0895 19.6427 35.6397 19.0694L35.8781 19.1304C36.2267 19.5255 36.4319 19.9726 36.6384 20.4475C36.662 20.4662 36.6835 20.4904 36.7105 20.4988C36.8671 20.5507 37.0882 20.5334 37.2774 20.4814C37.4646 20.4301 37.477 20.0731 37.4451 19.7314C37.712 20.9486 40.329 20.5868 38.7717 21.3292C37.8742 21.3493 36.4478 20.8571 36.1851 21.4789C35.6044 21.2155 35.3077 21.0429 35.1899 20.9077C34.8323 20.7733 33.8031 20.3837 33.7663 20.3837C33.7227 20.3837 32.4128 20.6221 32.4128 20.6221L31.3316 21.0325C30.9802 22.1652 30.4257 21.5593 30.2372 22.4376C30.0896 22.9991 28.8192 24.2121 29.4846 25.1673C30.0785 27.9303 33.5224 26.0906 34.325 27.4174C33.9479 28.2347 35.813 29.7895 34.7692 31.128C35.2613 33.0724 36.5837 36.3227 38.7114 33.5555C39.2728 31.8988 40.4815 31.0032 40.4385 29.3597C39.796 27.7411 43.5781 26.5412 42.0651 25.2304C41.7027 25.2734 41.6611 25.3517 41.3735 25.4474C40.7691 25.4245 40.6132 24.9372 40.4073 24.6308C40.2501 24.4073 40.1111 24.1715 39.9915 23.9258C40.3761 24.522 40.7733 25.028 41.3305 25.3392C42.2946 25.123 43.4 24.4097 43.8498 23.8863C43.8387 21.8463 46.5805 23.9626 46.525 25.4959C46.6949 25.909 46.9104 26.196 47.1266 26.3638C46.9729 25.3831 46.6803 24.4294 46.2575 23.5314C45.4889 21.8442 44.258 20.3955 42.7624 19.3113C42.7347 19.3543 42.6653 19.3571 42.6792 19.2531C42.4769 19.1098 42.2701 18.9732 42.0589 18.8434C42.0818 18.9398 42.1095 19.0375 42.1414 19.1367C42.0506 19.0015 41.9549 18.8642 41.8759 18.7318C40.2431 17.7697 38.3697 17.2186 36.4624 17.2325ZM59.0128 17.324C59.5152 18.7561 57.2649 22.075 56.9377 19.8964C57.1685 18.8192 59.0155 18.9814 59.0128 17.324ZM16.8222 17.7018C16.8062 17.7538 16.9234 17.69 16.8222 17.7018V17.7018ZM17.8902 18.2057C17.6462 18.3319 18.0919 18.3735 17.8902 18.2057V18.2057ZM38.7017 18.2515C39.261 18.7228 40.977 19.3467 39.1605 18.849C38.2151 19.2808 37.9227 19.0043 38.7017 18.2515ZM34.3783 19.0902C34.2563 19.1276 34.3596 19.3807 34.2834 19.4604C34.8032 19.7148 34.5121 19.2198 34.589 19.1387C34.4837 19.0888 34.4185 19.077 34.3783 19.0902ZM42.3022 19.6066C42.463 20.0246 42.5697 20.2915 42.1566 19.773C42.1908 19.7564 42.2212 19.7331 42.2462 19.7045C42.2712 19.676 42.2903 19.6427 42.3022 19.6066ZM34.4268 19.6586C34.2231 19.6364 34.115 19.773 34.1143 19.9636C34.6514 20.2554 34.5959 19.7737 34.6618 19.7369C34.5887 19.6966 34.5095 19.6701 34.4268 19.6586ZM42.7256 22.6275C43.032 22.64 42.4325 23.0711 42.535 22.6518C42.6203 22.6331 42.682 22.6254 42.7256 22.6275ZM63.8372 25.3392C65.0265 26.5863 62.8392 26.3998 63.8372 25.3392V25.3392ZM63.7679 25.5042C63.7492 25.5749 63.8705 25.4931 63.7679 25.5042V25.5042ZM63.8539 25.656C63.7499 25.6387 63.8636 25.7274 63.8539 25.656V25.656ZM64.5795 25.7947C65.7466 26.3298 63.6127 26.6362 64.5795 25.7947V25.7947ZM64.6835 26.0338C64.6696 26.1357 64.7569 26.0213 64.6835 26.0338V26.0338ZM64.5469 26.0705C64.4908 26.1191 64.6107 26.1565 64.5469 26.0705V26.0705ZM56.648 27.1602C56.6653 27.5928 56.6688 28.0246 56.6591 28.4565C57.4541 28.5833 58.45 28.5473 58.4687 29.4269C59.8937 29.4886 58.3218 31.5702 58.2698 29.6432C57.6893 29.5595 57.0972 29.6599 56.5766 29.9302C56.432 31.4428 56.1225 32.9351 55.6535 34.3804C56.8178 34.0109 58.0057 34.047 58.7071 35.1789C60.5542 35.172 58.983 36.4315 60.2922 36.6887C60.8501 35.5491 59.9983 35.6926 61.0448 34.7637C62.0602 33.4654 61.3955 31.7886 60.383 31.0795C60.1723 30.2768 59.333 29.8428 59.728 29.2952C60.4973 30.3385 61.5875 29.5572 60.6775 28.993C61.3491 28.3657 63.7485 30.6095 62.4012 28.8835C61.7358 28.7601 60.8217 27.3841 60.6145 28.27C60.5548 29.0048 58.7217 27.1547 58.0452 27.9116C57.8498 27.2295 56.8934 27.6413 56.8393 27.9456C57.1332 27.4881 56.9481 27.2517 56.648 27.1602ZM60.1744 27.7529C61.0712 28.2977 59.1812 28.3171 60.1744 27.7529V27.7529ZM34.2293 27.8014C34.2064 27.8312 34.309 27.9816 34.2293 27.8014V27.8014ZM25.5292 27.886C25.5086 28.8485 25.6156 29.8095 25.8473 30.744C26.6444 29.5364 26.6132 28.4024 25.5292 27.886ZM60.1231 27.9193C60.0496 27.9359 60.1827 27.9622 60.1231 27.9193V27.9193ZM60.7947 28.0024C60.4703 28.2312 61.1183 28.2312 60.7947 28.0024V28.0024ZM60.7947 28.0094C61.0892 28.2215 60.4994 28.2215 60.7947 28.0094V28.0094ZM60.1896 28.0697C60.087 28.0572 60.2007 28.1397 60.1896 28.0697V28.0697ZM56.6536 28.8225C56.6466 28.9888 56.6321 29.1552 56.621 29.3216C56.8448 29.0692 56.9419 28.8086 56.6536 28.8225ZM40.8564 29.5413C40.0552 29.9815 41.7138 30.1825 41.0207 29.6661L40.9909 29.5919L40.8564 29.5413ZM41.7935 29.6647C41.002 30.1596 39.7739 32.5192 41.4767 32.5934C41.887 32.1054 42.9273 29.9295 41.7935 29.6647ZM63.262 31.1675C65.1035 31.9182 62.6278 32.4187 63.262 31.1675V31.1675ZM43.0618 31.3339C44.0605 31.9376 42.0319 32.025 43.0618 31.3339V31.3339ZM64.9149 34.187C65.5013 35.5144 63.5565 36.3095 63.7035 37.542C64.7015 38.0231 65.2164 36.2125 65.9192 35.6586C66.7502 34.9322 65.2649 34.7173 64.9149 34.187ZM18.8203 38.2698C18.934 39.0005 19.2763 39.7075 19.8876 39.9231C19.5054 39.3895 19.1492 38.8378 18.8203 38.2698Z" fill="url(#paint0_linear_335_347)"/>
<defs>
<linearGradient id="paint0_linear_335_347" x1="-5.87591" y1="6.50666" x2="138.041" y2="42.3562" gradientUnits="userSpaceOnUse">
<stop offset="0.0001" stop-color="#006798"/>
<stop offset="1" stop-color="#0C023E"/>
</linearGradient>
</defs>
</svg>
