<svg width="70" height="70" viewBox="0 0 70 70" fill="none" xmlns="http://www.w3.org/2000/svg">
<g opacity="0.9">
<path d="M61.25 0H8.75C6.42936 0 4.20376 0.921873 2.56282 2.56282C0.921873 4.20376 0 6.42936 0 8.75L0 61.25C0 63.5706 0.921873 65.7962 2.56282 67.4372C4.20376 69.0781 6.42936 70 8.75 70H61.25C63.5706 70 65.7962 69.0781 67.4372 67.4372C69.0781 65.7962 70 63.5706 70 61.25V8.75C70 6.42936 69.0781 4.20376 67.4372 2.56282C65.7962 0.921873 63.5706 0 61.25 0V0ZM4.375 16.8744C4.375 14.805 6.335 13.125 8.75 13.125H61.25C63.665 13.125 65.625 14.805 65.625 16.8744V61.8756C65.625 63.945 63.665 65.625 61.25 65.625H8.75C6.335 65.625 4.375 63.945 4.375 61.8756V16.8744Z" fill="url(#paint0_linear_335_354)"/>
<path d="M52.5 30.625C53.6603 30.625 54.7731 30.1641 55.5936 29.3436C56.4141 28.5231 56.875 27.4103 56.875 26.25C56.875 25.0897 56.4141 23.9769 55.5936 23.1564C54.7731 22.3359 53.6603 21.875 52.5 21.875C51.3397 21.875 50.2269 22.3359 49.4064 23.1564C48.5859 23.9769 48.125 25.0897 48.125 26.25C48.125 27.4103 48.5859 28.5231 49.4064 29.3436C50.2269 30.1641 51.3397 30.625 52.5 30.625Z" fill="url(#paint1_linear_335_354)"/>
</g>
<defs>
<linearGradient id="paint0_linear_335_354" x1="-5.87591" y1="7.46666" x2="140.093" y2="39.1524" gradientUnits="userSpaceOnUse">
<stop offset="0.0001" stop-color="#006798"/>
<stop offset="1" stop-color="#0C023E"/>
</linearGradient>
<linearGradient id="paint1_linear_335_354" x1="47.3905" y1="22.8083" x2="65.6366" y2="26.7691" gradientUnits="userSpaceOnUse">
<stop offset="0.0001" stop-color="#006798"/>
<stop offset="1" stop-color="#0C023E"/>
</linearGradient>
</defs>
</svg>
